<svg width="45" height="45" viewBox="0 0 45 45" fill="none" xmlns="http://www.w3.org/2000/svg">
<circle cx="22.5" cy="22.5" r="22.0588" fill="#FBF1FF" stroke="url(#paint0_linear_2078_11612)" stroke-width="0.882353"/>
<path fill-rule="evenodd" clip-rule="evenodd" d="M22.4234 15.9412C22.7509 15.9412 23.0165 16.2046 23.0165 16.5295V23.353C23.0165 23.5409 22.926 23.7175 22.773 23.8282L18.3842 27.0046C18.1196 27.1962 17.7485 27.1386 17.5554 26.8762C17.3624 26.6138 17.4203 26.2458 17.6849 26.0543L21.8303 23.054V16.5295C21.8303 16.2046 22.0959 15.9412 22.4234 15.9412Z" fill="#522825"/>
<path fill-rule="evenodd" clip-rule="evenodd" d="M13.3851 25.9226C13.0679 26.0035 12.7446 25.8142 12.6629 25.4995C12.6124 25.3049 12.5683 25.1096 12.5304 24.914C12.4686 24.5949 12.6793 24.2867 13.001 24.2254C13.3227 24.1641 13.6336 24.3732 13.6953 24.6922C13.7286 24.864 13.7674 25.0354 13.8117 25.2063C13.8933 25.5209 13.7024 25.8416 13.3851 25.9226ZM12.9899 22.0214C12.6673 21.9648 12.4521 21.6595 12.5092 21.3396C12.5793 20.9465 12.6728 20.5583 12.7885 20.1772C12.8829 19.8661 13.2138 19.6899 13.5274 19.7836C13.841 19.8773 14.0187 20.2054 13.9243 20.5165C13.8218 20.8537 13.7392 21.1972 13.6772 21.5446C13.6202 21.8645 13.3125 22.078 12.9899 22.0214ZM14.5272 17.815C14.2646 17.6207 14.2105 17.2522 14.4064 16.9917C14.6462 16.6728 14.9052 16.3673 15.1824 16.0773C15.4077 15.8415 15.7831 15.8316 16.0208 16.0551C16.2586 16.2786 16.2686 16.6509 16.0432 16.8867C15.7984 17.1428 15.5694 17.4129 15.3572 17.6951C15.1613 17.9555 14.7897 18.0092 14.5272 17.815ZM17.8146 14.754C17.6731 14.461 17.7979 14.1097 18.0933 13.9694C18.2744 13.8834 18.4589 13.8025 18.6468 13.7271C18.9504 13.6052 19.2962 13.7505 19.4191 14.0516C19.542 14.3528 19.3955 14.6957 19.0919 14.8176C18.9268 14.8839 18.7647 14.9549 18.6057 15.0304C18.3103 15.1708 17.9561 15.047 17.8146 14.754Z" fill="#522825"/>
<path fill-rule="evenodd" clip-rule="evenodd" d="M21.8236 13.5882C21.8236 13.2634 22.0892 13 22.4167 13C27.9852 13 32.4993 17.4772 32.4993 23C32.4993 28.5228 27.9852 33 22.4167 33C19.0416 33 16.054 31.3547 14.2249 28.8313C14.0337 28.5675 14.0943 28.1999 14.3602 28.0102C14.6262 27.8207 14.9968 27.8807 15.188 28.1446C16.8038 30.3738 19.4395 31.8235 22.4167 31.8235C27.33 31.8235 31.3131 27.8731 31.3131 23C31.3131 18.1269 27.33 14.1765 22.4167 14.1765C22.0892 14.1765 21.8236 13.9131 21.8236 13.5882Z" fill="#522825"/>
<defs>
<linearGradient id="paint0_linear_2078_11612" x1="22.5" y1="0" x2="22.5" y2="45" gradientUnits="userSpaceOnUse">
<stop stop-color="#CF93EC"/>
<stop offset="1" stop-color="#765386"/>
</linearGradient>
</defs>
</svg>
