<svg width="45" height="45" viewBox="0 0 45 45" fill="none" xmlns="http://www.w3.org/2000/svg">
<circle cx="22.5" cy="22.5" r="22.0588" fill="#FBF1FF" stroke="url(#paint0_linear_3528_11634)" stroke-width="0.882353"/>
<path d="M22.5271 19.8782C24.1541 19.8782 25.4662 18.566 25.4662 16.9391C25.4662 15.3122 24.1645 14 22.5271 14C20.9 14 19.588 15.3122 19.588 16.9391C19.5984 18.5766 20.9105 19.8782 22.5271 19.8782ZM15.7041 28.3912H10.4242C8.71324 28.3912 8.61875 25.7775 10.4557 25.7775H15.0322L17.6564 21.9146C18.4332 20.8545 19.315 20.3506 20.564 20.3506H24.4794C25.7286 20.3506 26.6102 20.8125 27.387 21.9146L30.0217 25.7775H34.6298C36.4773 25.7775 36.3618 28.3912 34.6928 28.3912H29.4129C28.993 28.3912 28.4892 28.2442 28.1953 27.7929L26.1798 24.9168L26.1693 32.1177H18.9476L18.9371 24.9168L16.9217 27.7929C16.6278 28.2337 16.124 28.3912 15.7041 28.3912Z" fill="url(#paint1_linear_3528_11634)"/>
<path d="M12.1025 24.0222C13.8148 24.0222 15.2142 22.6321 15.2142 20.9105C15.2142 19.189 13.824 17.7988 12.1025 17.7988C10.3809 17.7988 9 19.1982 9 20.9197C9 22.6321 10.3902 24.0222 12.1025 24.0222ZM11.9306 21.1744C11.3599 20.9749 11.0039 20.6865 11.0039 20.174C11.0039 19.7014 11.3168 19.3301 11.8908 19.2135V18.7011H12.3204V19.189C12.6763 19.189 12.9341 19.2626 13.1244 19.3639L12.9494 19.9777C12.8082 19.9194 12.5781 19.8211 12.262 19.8211C11.946 19.8211 11.7741 19.9777 11.7741 20.1341C11.7741 20.3489 11.9736 20.4317 12.4032 20.6067C12.9894 20.8215 13.2625 21.1191 13.2625 21.6071C13.2625 22.095 12.9649 22.4663 12.3357 22.6074V23.0954H11.9061V22.6228C11.5347 22.6228 11.1604 22.5245 10.9793 22.4233L11.1359 21.7941C11.3354 21.8924 11.6483 22.0089 11.9798 22.0089C12.3357 22.0089 12.5107 21.8524 12.5107 21.6376C12.5107 21.4228 12.3418 21.3341 11.9306 21.1744Z" fill="#F4A918"/>
<path d="M34.8448 19.0277L35.1183 18.5938L34.4711 18.1858L34.2022 18.6121C33.893 18.4612 33.556 18.3587 33.2011 18.3147V17.9077H33.672V17.1426H31.9946V17.9077H32.436V18.3118C30.8492 18.4959 29.6133 19.8478 29.6133 21.4832C29.6133 23.2438 31.0457 24.6762 32.8063 24.6762C34.567 24.6762 35.9992 23.2441 35.9992 21.4834C35.9992 20.4971 35.5497 19.6139 34.8448 19.0277ZM32.8062 23.9119C31.4671 23.9119 30.3777 22.8225 30.3777 21.4834C30.3777 20.1444 31.4671 19.0549 32.8062 19.0549C34.1452 19.0549 35.2347 20.1444 35.2347 21.4834C35.2347 22.8225 34.1452 23.9119 32.8062 23.9119ZM34.7902 21.4687H32.8185V19.497C33.9053 19.5021 34.7786 20.3835 34.7902 21.4687Z" fill="#CD7F32"/>
<defs>
<linearGradient id="paint0_linear_3528_11634" x1="22.5" y1="0" x2="22.5" y2="45" gradientUnits="userSpaceOnUse">
<stop stop-color="#CF93EC"/>
<stop offset="1" stop-color="#765386"/>
</linearGradient>
<linearGradient id="paint1_linear_3528_11634" x1="22.5447" y1="14" x2="22.5447" y2="32.1177" gradientUnits="userSpaceOnUse">
<stop stop-color="#BF5C55"/>
<stop offset="1" stop-color="#592B28"/>
</linearGradient>
</defs>
</svg>
