<svg width="45" height="45" viewBox="0 0 45 45" fill="none" xmlns="http://www.w3.org/2000/svg">
<circle cx="22.5" cy="22.5" r="22.0588" fill="#FBF1FF" stroke="url(#paint0_linear_1864_9890)" stroke-width="0.882353"/>
<path d="M23 15C17.486 15 13 19.486 13 25C12.9987 26.5434 13.3586 28.0656 14.051 29.445C14.221 29.785 14.567 30 14.946 30H31.053C31.432 30 31.779 29.785 31.949 29.445C32.6414 28.0656 33.0013 26.5434 33 25C33 19.486 28.514 15 23 15ZM30.41 28H15.59C15.1992 27.0481 14.9988 26.0289 15 25C15 20.589 18.589 17 23 17C27.411 17 31 20.589 31 25C31.0012 26.0289 30.8008 27.0481 30.41 28Z" fill="url(#paint1_linear_1864_9890)"/>
<path d="M21.9387 23.939C21.726 24.0781 21.5513 24.268 21.4303 24.4916C21.3094 24.7151 21.2461 24.9653 21.2461 25.2195C21.2461 25.4737 21.3094 25.7238 21.4303 25.9474C21.5513 26.171 21.726 26.3609 21.9387 26.5C22.1068 26.6106 22.295 26.6869 22.4927 26.7247C22.6903 26.7624 22.8935 26.7608 23.0905 26.72C23.2875 26.6791 23.4745 26.5998 23.6408 26.4865C23.8071 26.3733 23.9495 26.2283 24.0597 26.06L28.0217 20.022C28.0249 20.0167 28.0266 20.0107 28.0266 20.0045C28.0266 19.9983 28.0249 19.9923 28.0217 19.987C28.017 19.9798 28.0096 19.9747 28.0012 19.9728C27.9928 19.971 27.984 19.9725 27.9767 19.977L21.9387 23.939Z" fill="url(#paint2_linear_1864_9890)"/>
<defs>
<linearGradient id="paint0_linear_1864_9890" x1="22.5" y1="0" x2="22.5" y2="45" gradientUnits="userSpaceOnUse">
<stop stop-color="#CF93EC"/>
<stop offset="1" stop-color="#765386"/>
</linearGradient>
<linearGradient id="paint1_linear_1864_9890" x1="23" y1="15" x2="23" y2="30" gradientUnits="userSpaceOnUse">
<stop stop-color="#A4504A"/>
<stop offset="1" stop-color="#3E1E1C"/>
</linearGradient>
<linearGradient id="paint2_linear_1864_9890" x1="24.6363" y1="19.972" x2="24.6363" y2="26.7519" gradientUnits="userSpaceOnUse">
<stop stop-color="#A4504A"/>
<stop offset="1" stop-color="#3E1E1C"/>
</linearGradient>
</defs>
</svg>
