<svg width="56" height="56" viewBox="0 0 56 56" fill="none" xmlns="http://www.w3.org/2000/svg">
<rect x="4" y="4" width="48" height="48" rx="24" fill="#6D6D6D"/>
<rect x="4" y="4" width="48" height="48" rx="24" stroke="#FEF3F2" stroke-width="8"/>
<path d="M26 28C24.9 28 23.9583 27.6083 23.175 26.825C22.3917 26.0417 22 25.1 22 24C22 22.9 22.3917 21.9583 23.175 21.175C23.9583 20.3917 24.9 20 26 20C27.1 20 28.0417 20.3917 28.825 21.175C29.6083 21.9583 30 22.9 30 24C30 25.1 29.6083 26.0417 28.825 26.825C28.0417 27.6083 27.1 28 26 28ZM18 36V33.2C18 32.65 18.1417 32.1333 18.425 31.65C18.7083 31.1667 19.1 30.8 19.6 30.55C20.45 30.1167 21.4083 29.75 22.475 29.45C23.5417 29.15 24.7167 29 26 29H26.35C26.45 29 26.55 29.0167 26.65 29.05C26.5167 29.35 26.4043 29.6627 26.313 29.988C26.2217 30.3133 26.1507 30.6507 26.1 31H26C24.8167 31 23.7543 31.15 22.813 31.45C21.8717 31.75 21.1007 32.05 20.5 32.35C20.35 32.4333 20.229 32.55 20.137 32.7C20.045 32.85 19.9993 33.0167 20 33.2V34H26.3C26.4 34.35 26.5333 34.696 26.7 35.038C26.8667 35.38 27.05 35.7007 27.25 36H18ZM32 37L31.7 35.5C31.5 35.4167 31.3127 35.3293 31.138 35.238C30.9633 35.1467 30.784 35.034 30.6 34.9L29.15 35.35L28.15 33.65L29.3 32.65C29.2667 32.4167 29.25 32.2 29.25 32C29.25 31.8 29.2667 31.5833 29.3 31.35L28.15 30.35L29.15 28.65L30.6 29.1C30.7833 28.9667 30.9627 28.8543 31.138 28.763C31.3133 28.6717 31.5007 28.584 31.7 28.5L32 27H34L34.3 28.5C34.5 28.5833 34.6877 28.675 34.863 28.775C35.0383 28.875 35.2173 29 35.4 29.15L36.85 28.65L37.85 30.4L36.7 31.4C36.7333 31.6 36.75 31.8083 36.75 32.025C36.75 32.2417 36.7333 32.45 36.7 32.65L37.85 33.65L36.85 35.35L35.4 34.9C35.2167 35.0333 35.0377 35.146 34.863 35.238C34.6883 35.33 34.5007 35.4173 34.3 35.5L34 37H32ZM33 34C33.55 34 34.021 33.8043 34.413 33.413C34.805 33.0217 35.0007 32.5507 35 32C35 31.45 34.8043 30.9793 34.413 30.588C34.0217 30.1967 33.5507 30.0007 33 30C32.45 30 31.9793 30.196 31.588 30.588C31.1967 30.98 31.0007 31.4507 31 32C31 32.55 31.196 33.021 31.588 33.413C31.98 33.805 32.4507 34.0007 33 34ZM26 26C26.55 26 27.021 25.8043 27.413 25.413C27.805 25.0217 28.0007 24.5507 28 24C28 23.45 27.8043 22.9793 27.413 22.588C27.0217 22.1967 26.5507 22.0007 26 22C25.45 22 24.9793 22.196 24.588 22.588C24.1967 22.98 24.0007 23.4507 24 24C24 24.55 24.196 25.021 24.588 25.413C24.98 25.805 25.4507 26.0007 26 26Z" fill="white"/>
</svg>
