<svg width="45" height="45" viewBox="0 0 45 45" fill="none" xmlns="http://www.w3.org/2000/svg">
<circle cx="22.5" cy="22.5" r="22.0588" fill="#FBF1FF" stroke="url(#paint0_linear_3456_56389)" stroke-width="0.882353"/>
<path fill-rule="evenodd" clip-rule="evenodd" d="M14 20.568V25.432C14 27.726 14 28.872 14.722 29.585C15.377 30.232 16.396 30.291 18.318 30.297C18.3128 30.262 18.3078 30.227 18.303 30.192C18.188 29.348 18.188 28.276 18.188 26.945V26.892C18.188 26.489 18.519 26.162 18.928 26.162C19.336 26.162 19.667 26.489 19.667 26.892C19.667 28.288 19.668 29.262 19.768 29.997C19.866 30.711 20.043 31.09 20.316 31.359C20.589 31.629 20.972 31.804 21.695 31.899C22.439 31.999 23.426 32 24.841 32H25.826C27.241 32 28.227 31.998 28.972 31.9C29.695 31.804 30.078 31.628 30.35 31.359C30.623 31.089 30.801 30.711 30.898 29.997C30.998 29.263 31 28.288 31 26.892V19.108C31 17.711 30.998 16.738 30.898 16.003C30.801 15.289 30.623 14.91 30.351 14.641C30.078 14.371 29.695 14.196 28.971 14.101C28.228 14 27.242 14 25.827 14H24.842C23.427 14 22.44 14.002 21.696 14.1C20.973 14.196 20.59 14.372 20.317 14.641C20.044 14.911 19.867 15.289 19.769 16.003C19.669 16.737 19.668 17.711 19.668 19.108C19.668 19.511 19.337 19.838 18.928 19.838C18.8315 19.8387 18.7359 19.8203 18.6465 19.7839C18.5571 19.7476 18.4758 19.694 18.4072 19.6262C18.3385 19.5584 18.2839 19.4777 18.2465 19.3888C18.2091 19.2999 18.1895 19.2045 18.189 19.108V19.055C18.189 17.725 18.189 16.652 18.304 15.808L18.319 15.703C16.397 15.709 15.379 15.768 14.723 16.415C14.001 17.128 14 18.275 14 20.568ZM23.886 25.948L26.35 23.516C26.4186 23.4487 26.473 23.3684 26.5102 23.2798C26.5474 23.1912 26.5666 23.0961 26.5666 23C26.5666 22.9039 26.5474 22.8088 26.5102 22.7202C26.473 22.6316 26.4186 22.5513 26.35 22.484L23.886 20.052C23.7465 19.9151 23.5589 19.8385 23.3635 19.8385C23.1681 19.8385 22.9805 19.9151 22.841 20.052C22.7724 20.1193 22.718 20.1996 22.6808 20.2882C22.6436 20.3768 22.6244 20.4719 22.6244 20.568C22.6244 20.6641 22.6436 20.7592 22.6808 20.8478C22.718 20.9364 22.7724 21.0167 22.841 21.084L24.043 22.27H16.957C16.8604 22.2692 16.7647 22.2875 16.6752 22.3238C16.5857 22.36 16.5043 22.4136 16.4355 22.4814C16.3668 22.5493 16.3121 22.63 16.2746 22.7189C16.2371 22.8079 16.2175 22.9034 16.217 23C16.217 23.403 16.548 23.73 16.957 23.73H24.042L22.84 24.916C22.7714 24.9833 22.717 25.0636 22.6798 25.1522C22.6426 25.2408 22.6234 25.3359 22.6234 25.432C22.6234 25.5281 22.6426 25.6232 22.6798 25.7118C22.717 25.8004 22.7714 25.8807 22.84 25.948C22.9795 26.0849 23.1671 26.1615 23.3625 26.1615C23.5579 26.1615 23.7465 26.0849 23.886 25.948Z" fill="url(#paint1_linear_3456_56389)"/>
<defs>
<linearGradient id="paint0_linear_3456_56389" x1="22.5" y1="0" x2="22.5" y2="45" gradientUnits="userSpaceOnUse">
<stop stop-color="#CF93EC"/>
<stop offset="1" stop-color="#765386"/>
</linearGradient>
<linearGradient id="paint1_linear_3456_56389" x1="22.5" y1="14" x2="22.5" y2="32" gradientUnits="userSpaceOnUse">
<stop stop-color="#8F4540"/>
<stop offset="1" stop-color="#291412"/>
</linearGradient>
</defs>
</svg>
