<svg width="196" height="63" viewBox="0 0 196 63" fill="none" xmlns="http://www.w3.org/2000/svg">
<g filter="url(#filter0_d_2_2560)">
<path d="M29 17H170.5C181.822 17 191 26.1782 191 37.5C191 48.8218 181.822 58 170.5 58H29V17Z" fill="white" shape-rendering="crispEdges"/>
<path d="M29.25 17.25H170.5C181.684 17.25 190.75 26.3162 190.75 37.5C190.75 48.6838 181.684 57.75 170.5 57.75H29.25V17.25Z" stroke="#40B03D" stroke-width="0.5" shape-rendering="crispEdges"/>
<path d="M76.426 45.198C74.9887 45.198 73.7347 44.8753 72.664 44.23C71.608 43.57 70.7867 42.646 70.2 41.458C69.628 40.27 69.342 38.862 69.342 37.234C69.342 35.606 69.628 34.198 70.2 33.01C70.772 31.822 71.586 30.9053 72.642 30.26C73.7127 29.6147 74.974 29.292 76.426 29.292C77.8927 29.292 79.154 29.6147 80.21 30.26C81.2807 30.9053 82.102 31.822 82.674 33.01C83.2607 34.1833 83.554 35.584 83.554 37.212C83.554 38.84 83.2607 40.2553 82.674 41.458C82.0873 42.646 81.2587 43.57 80.188 44.23C79.132 44.8753 77.878 45.198 76.426 45.198ZM76.426 43.592C78.0833 43.592 79.3667 43.0347 80.276 41.92C81.1853 40.8053 81.64 39.2433 81.64 37.234C81.64 35.2247 81.1853 33.67 80.276 32.57C79.3667 31.4553 78.0833 30.898 76.426 30.898C74.798 30.898 73.5293 31.4553 72.62 32.57C71.7107 33.67 71.256 35.2247 71.256 37.234C71.256 39.2287 71.7107 40.7907 72.62 41.92C73.5293 43.0347 74.798 43.592 76.426 43.592ZM86.5372 45V34.308H88.2752V36.134C88.6272 35.4593 89.1259 34.9533 89.7712 34.616C90.4166 34.2787 91.1426 34.11 91.9492 34.11C94.4866 34.11 95.7552 35.518 95.7552 38.334V45H93.9732V38.444C93.9732 37.4467 93.7752 36.7207 93.3792 36.266C92.9979 35.7967 92.3819 35.562 91.5312 35.562C90.5486 35.562 89.7639 35.87 89.1772 36.486C88.6052 37.0873 88.3192 37.894 88.3192 38.906V45H86.5372ZM108.74 45V31.052H103.108V29.49H116.198V31.052H110.566V45H108.74ZM117.706 31.646V29.644H119.906V31.646H117.706ZM117.926 45V34.308H119.708V45H117.926ZM123.083 45V34.308H124.821V36.112C125.144 35.4667 125.591 34.9753 126.163 34.638C126.735 34.286 127.403 34.11 128.165 34.11C129.837 34.11 130.908 34.836 131.377 36.288C131.7 35.6133 132.177 35.0853 132.807 34.704C133.438 34.308 134.164 34.11 134.985 34.11C137.361 34.11 138.549 35.518 138.549 38.334V45H136.767V38.422C136.767 37.4393 136.591 36.7207 136.239 36.266C135.902 35.7967 135.337 35.562 134.545 35.562C133.68 35.562 132.991 35.87 132.477 36.486C131.964 37.102 131.707 37.9233 131.707 38.95V45H129.925V38.422C129.925 37.4393 129.749 36.7207 129.397 36.266C129.06 35.7967 128.495 35.562 127.703 35.562C126.823 35.562 126.127 35.87 125.613 36.486C125.115 37.102 124.865 37.9233 124.865 38.95V45H123.083ZM146.699 45.198C145.012 45.198 143.678 44.7067 142.695 43.724C141.712 42.7267 141.221 41.3773 141.221 39.676C141.221 38.576 141.441 37.608 141.881 36.772C142.321 35.9213 142.922 35.2687 143.685 34.814C144.462 34.3447 145.357 34.11 146.369 34.11C147.821 34.11 148.958 34.5793 149.779 35.518C150.6 36.442 151.011 37.718 151.011 39.346V40.028H142.959C143.018 41.2453 143.37 42.1767 144.015 42.822C144.66 43.4527 145.555 43.768 146.699 43.768C147.344 43.768 147.96 43.6727 148.547 43.482C149.134 43.2767 149.691 42.9467 150.219 42.492L150.835 43.746C150.351 44.2007 149.735 44.56 148.987 44.824C148.239 45.0733 147.476 45.198 146.699 45.198ZM146.413 35.43C145.401 35.43 144.602 35.7453 144.015 36.376C143.428 37.0067 143.084 37.8353 142.981 38.862H149.471C149.427 37.7767 149.141 36.9333 148.613 36.332C148.1 35.7307 147.366 35.43 146.413 35.43Z" fill="black"/>
</g>
<circle cx="27" cy="33" r="24" fill="white"/>
<path fill-rule="evenodd" clip-rule="evenodd" d="M27 60C41.9117 60 54 47.9117 54 33C54 18.0883 41.9117 6 27 6C12.0883 6 0 18.0883 0 33C0 47.9117 12.0883 60 27 60ZM27 57C40.2548 57 51 46.2548 51 33C51 19.7452 40.2548 9 27 9C13.7452 9 3 19.7452 3 33C3 46.2548 13.7452 57 27 57Z" fill="#40B03D"/>
<circle cx="27.0253" cy="13.505" r="1.5" transform="rotate(-1.43077 27.0253 13.505)" fill="#40B03D"/>
<circle cx="14.1542" cy="18.8293" r="1.5" transform="rotate(-1.43077 14.1542 18.8293)" fill="#40B03D"/>
<circle cx="8.50574" cy="32.9738" r="1.5" transform="rotate(-1.43077 8.50574 32.9738)" fill="#40B03D"/>
<circle cx="14.8534" cy="46.8215" r="1.5" transform="rotate(-1.43077 14.8534 46.8215)" fill="#40B03D"/>
<circle cx="27.9745" cy="51.4933" r="1.5" transform="rotate(-1.43077 27.9745 51.4933)" fill="#40B03D"/>
<circle cx="40.8221" cy="45.173" r="1.5" transform="rotate(-1.43077 40.8221 45.173)" fill="#40B03D"/>
<circle cx="46.494" cy="32.0246" r="1.5" transform="rotate(-1.43077 46.494 32.0246)" fill="#40B03D"/>
<path d="M24 24C24 22.8954 24.8954 22 26 22C27.1046 22 28 22.8954 28 24V35H24V24Z" fill="#40B03D"/>
<rect x="24" y="33" width="14" height="4" rx="2" fill="#40B03D"/>
<circle cx="45" cy="14" r="13" fill="white" stroke="#40B03D" stroke-width="2"/>
<path d="M37 15L42.25 20.25L52.75 9" stroke="#40B03D" stroke-width="2.25" stroke-linecap="round" stroke-linejoin="round"/>
<defs>
<filter id="filter0_d_2_2560" x="26" y="14" width="170" height="49" filterUnits="userSpaceOnUse" color-interpolation-filters="sRGB">
<feFlood flood-opacity="0" result="BackgroundImageFix"/>
<feColorMatrix in="SourceAlpha" type="matrix" values="0 0 0 0 0 0 0 0 0 0 0 0 0 0 0 0 0 0 127 0" result="hardAlpha"/>
<feOffset dx="1" dy="1"/>
<feGaussianBlur stdDeviation="2"/>
<feComposite in2="hardAlpha" operator="out"/>
<feColorMatrix type="matrix" values="0 0 0 0 0 0 0 0 0 0 0 0 0 0 0 0 0 0 0.25 0"/>
<feBlend mode="normal" in2="BackgroundImageFix" result="effect1_dropShadow_2_2560"/>
<feBlend mode="normal" in="SourceGraphic" in2="effect1_dropShadow_2_2560" result="shape"/>
</filter>
</defs>
</svg>
