<svg width="196" height="63" viewBox="0 0 196 63" fill="none" xmlns="http://www.w3.org/2000/svg">
<g filter="url(#filter0_d_1226_6602)">
<path d="M29 17H170.5C181.822 17 191 26.1782 191 37.5C191 48.8218 181.822 58 170.5 58H29V17Z" fill="white" shape-rendering="crispEdges"/>
<path d="M29.25 17.25H170.5C181.684 17.25 190.75 26.3162 190.75 37.5C190.75 48.6838 181.684 57.75 170.5 57.75H29.25V17.25Z" stroke="#4682B4" stroke-width="0.5" shape-rendering="crispEdges"/>
<path d="M75.926 45.198C74.4887 45.198 73.2347 44.8753 72.164 44.23C71.108 43.57 70.2867 42.646 69.7 41.458C69.128 40.27 68.842 38.862 68.842 37.234C68.842 35.606 69.128 34.198 69.7 33.01C70.272 31.822 71.086 30.9053 72.142 30.26C73.2127 29.6147 74.474 29.292 75.926 29.292C77.3927 29.292 78.654 29.6147 79.71 30.26C80.7807 30.9053 81.602 31.822 82.174 33.01C82.7607 34.1833 83.054 35.584 83.054 37.212C83.054 38.84 82.7607 40.2553 82.174 41.458C81.5873 42.646 80.7587 43.57 79.688 44.23C78.632 44.8753 77.378 45.198 75.926 45.198ZM75.926 43.592C77.5833 43.592 78.8667 43.0347 79.776 41.92C80.6853 40.8053 81.14 39.2433 81.14 37.234C81.14 35.2247 80.6853 33.67 79.776 32.57C78.8667 31.4553 77.5833 30.898 75.926 30.898C74.298 30.898 73.0293 31.4553 72.12 32.57C71.2107 33.67 70.756 35.2247 70.756 37.234C70.756 39.2287 71.2107 40.7907 72.12 41.92C73.0293 43.0347 74.298 43.592 75.926 43.592ZM86.0372 45V34.308H87.7752V36.134C88.1272 35.4593 88.6259 34.9533 89.2712 34.616C89.9166 34.2787 90.6426 34.11 91.4492 34.11C93.9866 34.11 95.2552 35.518 95.2552 38.334V45H93.4732V38.444C93.4732 37.4467 93.2752 36.7207 92.8792 36.266C92.4979 35.7967 91.8819 35.562 91.0312 35.562C90.0486 35.562 89.2639 35.87 88.6772 36.486C88.1052 37.0873 87.8192 37.894 87.8192 38.906V45H86.0372ZM103.271 49.158C102.347 49.158 101.474 49.0333 100.653 48.784C99.8465 48.5493 99.1278 48.19 98.4971 47.706L99.0911 46.408C99.7511 46.8773 100.404 47.2147 101.049 47.42C101.709 47.6253 102.42 47.728 103.183 47.728C105.295 47.728 106.351 46.6427 106.351 44.472V42.58C106.043 43.2547 105.559 43.79 104.899 44.186C104.254 44.5673 103.513 44.758 102.677 44.758C101.694 44.758 100.844 44.5307 100.125 44.076C99.4065 43.6213 98.8491 42.998 98.4531 42.206C98.0718 41.3993 97.8811 40.468 97.8811 39.412C97.8811 38.356 98.0718 37.432 98.4531 36.64C98.8491 35.8333 99.4065 35.21 100.125 34.77C100.844 34.33 101.694 34.11 102.677 34.11C103.513 34.11 104.254 34.3007 104.899 34.682C105.559 35.0633 106.043 35.584 106.351 36.244V34.308H108.089V44.23C108.089 45.8727 107.678 47.1047 106.857 47.926C106.05 48.7473 104.855 49.158 103.271 49.158ZM103.007 43.306C104.034 43.306 104.848 42.954 105.449 42.25C106.05 41.546 106.351 40.6 106.351 39.412C106.351 38.224 106.05 37.2853 105.449 36.596C104.848 35.892 104.034 35.54 103.007 35.54C101.995 35.54 101.188 35.892 100.587 36.596C99.9858 37.2853 99.6851 38.224 99.6851 39.412C99.6851 40.6 99.9858 41.546 100.587 42.25C101.188 42.954 101.995 43.306 103.007 43.306ZM115.876 45.198C114.834 45.198 113.932 44.9707 113.17 44.516C112.407 44.0613 111.813 43.4233 111.388 42.602C110.977 41.766 110.772 40.7833 110.772 39.654C110.772 38.5247 110.977 37.5493 111.388 36.728C111.813 35.892 112.407 35.2467 113.17 34.792C113.932 34.3373 114.834 34.11 115.876 34.11C116.902 34.11 117.797 34.3373 118.56 34.792C119.337 35.2467 119.931 35.892 120.342 36.728C120.767 37.5493 120.98 38.5247 120.98 39.654C120.98 40.7833 120.767 41.766 120.342 42.602C119.931 43.4233 119.337 44.0613 118.56 44.516C117.797 44.9707 116.902 45.198 115.876 45.198ZM115.876 43.768C116.873 43.768 117.672 43.416 118.274 42.712C118.875 41.9933 119.176 40.974 119.176 39.654C119.176 38.3193 118.875 37.3 118.274 36.596C117.672 35.892 116.873 35.54 115.876 35.54C114.864 35.54 114.057 35.892 113.456 36.596C112.869 37.3 112.576 38.3193 112.576 39.654C112.576 40.974 112.869 41.9933 113.456 42.712C114.057 43.416 114.864 43.768 115.876 43.768ZM123.436 31.646V29.644H125.636V31.646H123.436ZM123.656 45V34.308H125.438V45H123.656ZM128.77 45V34.308H130.508V36.134C130.86 35.4593 131.358 34.9533 132.004 34.616C132.649 34.2787 133.375 34.11 134.182 34.11C136.719 34.11 137.988 35.518 137.988 38.334V45H136.206V38.444C136.206 37.4467 136.008 36.7207 135.612 36.266C135.23 35.7967 134.614 35.562 133.764 35.562C132.781 35.562 131.996 35.87 131.41 36.486C130.838 37.0873 130.552 37.894 130.552 38.906V45H128.77ZM146.004 49.158C145.08 49.158 144.207 49.0333 143.386 48.784C142.579 48.5493 141.86 48.19 141.23 47.706L141.824 46.408C142.484 46.8773 143.136 47.2147 143.782 47.42C144.442 47.6253 145.153 47.728 145.916 47.728C148.028 47.728 149.084 46.6427 149.084 44.472V42.58C148.776 43.2547 148.292 43.79 147.632 44.186C146.986 44.5673 146.246 44.758 145.41 44.758C144.427 44.758 143.576 44.5307 142.858 44.076C142.139 43.6213 141.582 42.998 141.186 42.206C140.804 41.3993 140.614 40.468 140.614 39.412C140.614 38.356 140.804 37.432 141.186 36.64C141.582 35.8333 142.139 35.21 142.858 34.77C143.576 34.33 144.427 34.11 145.41 34.11C146.246 34.11 146.986 34.3007 147.632 34.682C148.292 35.0633 148.776 35.584 149.084 36.244V34.308H150.822V44.23C150.822 45.8727 150.411 47.1047 149.59 47.926C148.783 48.7473 147.588 49.158 146.004 49.158ZM145.74 43.306C146.766 43.306 147.58 42.954 148.182 42.25C148.783 41.546 149.084 40.6 149.084 39.412C149.084 38.224 148.783 37.2853 148.182 36.596C147.58 35.892 146.766 35.54 145.74 35.54C144.728 35.54 143.921 35.892 143.32 36.596C142.718 37.2853 142.418 38.224 142.418 39.412C142.418 40.6 142.718 41.546 143.32 42.25C143.921 42.954 144.728 43.306 145.74 43.306Z" fill="black"/>
</g>
<circle cx="27" cy="33" r="24" fill="white"/>
<path fill-rule="evenodd" clip-rule="evenodd" d="M27 60C41.9117 60 54 47.9117 54 33C54 18.0883 41.9117 6 27 6C12.0883 6 0 18.0883 0 33C0 47.9117 12.0883 60 27 60ZM27 57C40.2548 57 51 46.2548 51 33C51 19.7452 40.2548 9 27 9C13.7452 9 3 19.7452 3 33C3 46.2548 13.7452 57 27 57Z" fill="#4682B4"/>
<circle cx="27.0253" cy="13.505" r="1.5" transform="rotate(-1.43077 27.0253 13.505)" fill="#4682B4"/>
<circle cx="14.1542" cy="18.8293" r="1.5" transform="rotate(-1.43077 14.1542 18.8293)" fill="#4682B4"/>
<circle cx="8.50574" cy="32.9738" r="1.5" transform="rotate(-1.43077 8.50574 32.9738)" fill="#4682B4"/>
<circle cx="14.8534" cy="46.8215" r="1.5" transform="rotate(-1.43077 14.8534 46.8215)" fill="#4682B4"/>
<circle cx="27.9745" cy="51.4933" r="1.5" transform="rotate(-1.43077 27.9745 51.4933)" fill="#4682B4"/>
<circle cx="40.8221" cy="45.173" r="1.5" transform="rotate(-1.43077 40.8221 45.173)" fill="#4682B4"/>
<circle cx="46.494" cy="32.0246" r="1.5" transform="rotate(-1.43077 46.494 32.0246)" fill="#4682B4"/>
<path d="M24 24C24 22.8954 24.8954 22 26 22C27.1046 22 28 22.8954 28 24V35H24V24Z" fill="#4682B4"/>
<rect x="24" y="33" width="14" height="4" rx="2" fill="#4682B4"/>
<circle cx="45" cy="14" r="13" fill="white" stroke="#4682B4" stroke-width="2"/>
<path d="M52.3333 20.3346V16.168H48.1667M39 7.00129V11.168H43.1667M52.2817 12.8346C52.1072 11.4491 51.5022 10.1534 50.5519 9.13015C49.6016 8.10694 48.354 7.40792 46.9852 7.13172C45.6163 6.85552 44.1953 7.01608 42.9226 7.59074C41.6499 8.16541 40.5897 9.12517 39.8917 10.3346M39.0517 14.5013C39.2261 15.8868 39.8312 17.1825 40.7815 18.2058C41.7318 19.229 42.9793 19.928 44.3482 20.2042C45.717 20.4804 47.138 20.3198 48.4108 19.7452C49.6835 19.1705 50.7436 18.2107 51.4417 17.0013" stroke="#4682B4" stroke-width="1.5" stroke-linecap="round" stroke-linejoin="round"/>
<defs>
<filter id="filter0_d_1226_6602" x="26" y="14" width="170" height="49" filterUnits="userSpaceOnUse" color-interpolation-filters="sRGB">
<feFlood flood-opacity="0" result="BackgroundImageFix"/>
<feColorMatrix in="SourceAlpha" type="matrix" values="0 0 0 0 0 0 0 0 0 0 0 0 0 0 0 0 0 0 127 0" result="hardAlpha"/>
<feOffset dx="1" dy="1"/>
<feGaussianBlur stdDeviation="2"/>
<feComposite in2="hardAlpha" operator="out"/>
<feColorMatrix type="matrix" values="0 0 0 0 0 0 0 0 0 0 0 0 0 0 0 0 0 0 0.25 0"/>
<feBlend mode="normal" in2="BackgroundImageFix" result="effect1_dropShadow_1226_6602"/>
<feBlend mode="normal" in="SourceGraphic" in2="effect1_dropShadow_1226_6602" result="shape"/>
</filter>
</defs>
</svg>
