<svg width="25" height="25" viewBox="0 0 25 25" fill="none" xmlns="http://www.w3.org/2000/svg">
<path d="M16.5 14.5H18V17.32L20.44 18.73L19.69 20.03L16.5 18.19V14.5ZM17.5 12.5C16.1739 12.5 14.9021 13.0268 13.9645 13.9645C13.0268 14.9021 12.5 16.1739 12.5 17.5C12.5 18.8261 13.0268 20.0979 13.9645 21.0355C14.9021 21.9732 16.1739 22.5 17.5 22.5C18.8261 22.5 20.0979 21.9732 21.0355 21.0355C21.9732 20.0979 22.5 18.8261 22.5 17.5C22.5 16.1739 21.9732 14.9021 21.0355 13.9645C20.0979 13.0268 18.8261 12.5 17.5 12.5ZM17.5 10.5C19.3565 10.5 21.137 11.2375 22.4497 12.5503C23.7625 13.863 24.5 15.6435 24.5 17.5C24.5 19.3565 23.7625 21.137 22.4497 22.4497C21.137 23.7625 19.3565 24.5 17.5 24.5C14.71 24.5 12.3 22.86 11.17 20.5H1.5V17.5C1.5 14.84 6.83 13.5 9.5 13.5C10.1 13.5 10.84 13.57 11.62 13.7C12.2543 12.7174 13.1249 11.9096 14.1521 11.3506C15.1794 10.7915 16.3305 10.4991 17.5 10.5ZM10.5 17.5C10.5 16.8 10.6 16.12 10.79 15.5C10.37 15.43 9.93 15.4 9.5 15.4C6.53 15.4 3.4 16.86 3.4 17.5V18.6H10.59C10.5298 18.2364 10.4997 17.8685 10.5 17.5ZM9.5 4.5C10.5609 4.5 11.5783 4.92143 12.3284 5.67157C13.0786 6.42172 13.5 7.43913 13.5 8.5C13.5 9.56087 13.0786 10.5783 12.3284 11.3284C11.5783 12.0786 10.5609 12.5 9.5 12.5C8.43913 12.5 7.42172 12.0786 6.67157 11.3284C5.92143 10.5783 5.5 9.56087 5.5 8.5C5.5 7.43913 5.92143 6.42172 6.67157 5.67157C7.42172 4.92143 8.43913 4.5 9.5 4.5ZM9.5 6.4C8.94305 6.4 8.4089 6.62125 8.01508 7.01508C7.62125 7.4089 7.4 7.94305 7.4 8.5C7.4 9.05695 7.62125 9.5911 8.01508 9.98492C8.4089 10.3788 8.94305 10.6 9.5 10.6C10.057 10.6 10.5911 10.3788 10.9849 9.98492C11.3788 9.5911 11.6 9.05695 11.6 8.5C11.6 7.94305 11.3788 7.4089 10.9849 7.01508C10.5911 6.62125 10.057 6.4 9.5 6.4Z" fill="#FFC700"/>
</svg>
