<svg width="45" height="45" viewBox="0 0 45 45" fill="none" xmlns="http://www.w3.org/2000/svg">
<circle cx="22.5" cy="22.5" r="22.0588" fill="#FBF1FF" stroke="url(#paint0_linear_3456_56401)" stroke-width="0.882353"/>
<path d="M21.0103 13.6275C21.1112 13.4544 21.2557 13.3108 21.4294 13.211C21.6031 13.1111 21.7999 13.0586 22.0003 13.0586C22.2006 13.0586 22.3975 13.1111 22.5712 13.211C22.7449 13.3108 22.8894 13.4544 22.9903 13.6275L25.5524 18.0257L30.528 19.1037C30.7238 19.1462 30.9049 19.2393 31.0534 19.3737C31.202 19.508 31.3127 19.679 31.3745 19.8695C31.4364 20.06 31.4472 20.2634 31.406 20.4594C31.3648 20.6553 31.2729 20.8371 31.1395 20.9865L27.7478 24.7824L28.2611 29.847C28.2814 30.0464 28.249 30.2477 28.1671 30.4307C28.0852 30.6136 27.9568 30.7719 27.7947 30.8898C27.6325 31.0076 27.4423 31.0808 27.2429 31.1021C27.0436 31.1234 26.8422 31.0921 26.6588 31.0112L22.0003 28.9578L17.3418 31.0112C17.1584 31.0921 16.957 31.1234 16.7576 31.1021C16.5583 31.0808 16.3681 31.0076 16.2059 30.8898C16.0438 30.7719 15.9153 30.6136 15.8335 30.4307C15.7516 30.2477 15.7192 30.0464 15.7395 29.847L16.2528 24.7824L12.8611 20.9874C12.7275 20.838 12.6354 20.6562 12.594 20.4601C12.5526 20.264 12.5634 20.0604 12.6253 19.8698C12.6872 19.6791 12.798 19.5081 12.9467 19.3736C13.0953 19.2392 13.2767 19.1461 13.4725 19.1037L18.4482 18.0257L21.0103 13.6275Z" fill="url(#paint1_linear_3456_56401)"/>
<defs>
<linearGradient id="paint0_linear_3456_56401" x1="22.5" y1="0" x2="22.5" y2="45" gradientUnits="userSpaceOnUse">
<stop stop-color="#CF93EC"/>
<stop offset="1" stop-color="#765386"/>
</linearGradient>
<linearGradient id="paint1_linear_3456_56401" x1="21.9999" y1="13.0586" x2="21.9999" y2="31.1086" gradientUnits="userSpaceOnUse">
<stop stop-color="#B35751"/>
<stop offset="1" stop-color="#4D2523"/>
</linearGradient>
</defs>
</svg>
