<svg width="45" height="45" viewBox="0 0 45 45" fill="none" xmlns="http://www.w3.org/2000/svg">
<circle cx="22.5" cy="22.5" r="22.0588" fill="#FBF1FF" stroke="url(#paint0_linear_3456_56538)" stroke-width="0.882353"/>
<path d="M18.1777 23C17.0529 23.0335 16.133 23.4621 15.4179 24.2857H14.0223C13.453 24.2857 12.974 24.1501 12.5852 23.8789C12.1964 23.6077 12.002 23.2109 12.002 22.6886C12.002 20.3248 12.4324 19.1429 13.2933 19.1429C13.335 19.1429 13.486 19.2132 13.7464 19.3538C14.0067 19.4944 14.3452 19.6367 14.7618 19.7807C15.1783 19.9247 15.5914 19.9967 16.0011 19.9967C16.4662 19.9967 16.9279 19.9196 17.3862 19.7656C17.3515 20.0134 17.3341 20.2344 17.3341 20.4286C17.3341 21.3594 17.6153 22.2165 18.1777 23ZM29.3314 29.3984C29.3314 30.202 29.078 30.8365 28.5712 31.3019C28.0644 31.7673 27.3909 32 26.5508 32H17.4487C16.6086 32 15.9351 31.7673 15.4283 31.3019C14.9214 30.8365 14.668 30.202 14.668 29.3984C14.668 29.0435 14.6802 28.697 14.7045 28.3588C14.7288 28.0206 14.7774 27.6557 14.8503 27.264C14.9232 26.8722 15.0152 26.5089 15.1263 26.1741C15.2373 25.8393 15.3866 25.5128 15.5741 25.1948C15.7615 24.8767 15.9768 24.6055 16.2198 24.3811C16.4628 24.1568 16.7596 23.9777 17.1102 23.8437C17.4608 23.7098 17.8479 23.6429 18.2714 23.6429C18.3408 23.6429 18.4901 23.7148 18.7192 23.8588C18.9483 24.0028 19.2017 24.1635 19.4795 24.341C19.7572 24.5184 20.1286 24.6791 20.5938 24.8231C21.059 24.9671 21.5276 25.0391 21.9997 25.0391C22.4718 25.0391 22.9405 24.9671 23.4057 24.8231C23.8708 24.6791 24.2423 24.5184 24.52 24.341C24.7977 24.1635 25.0511 24.0028 25.2803 23.8588C25.5094 23.7148 25.6586 23.6429 25.7281 23.6429C26.1516 23.6429 26.5387 23.7098 26.8893 23.8437C27.2399 23.9777 27.5367 24.1568 27.7797 24.3811C28.0227 24.6055 28.2379 24.8767 28.4254 25.1948C28.6128 25.5128 28.7621 25.8393 28.8732 26.1741C28.9843 26.5089 29.0763 26.8722 29.1492 27.264C29.2221 27.6557 29.2707 28.0206 29.295 28.3588C29.3193 28.697 29.3314 29.0435 29.3314 29.3984ZM18.6671 16.5714C18.6671 17.2812 18.4068 17.8873 17.8861 18.3895C17.3653 18.8917 16.737 19.1429 16.0011 19.1429C15.2651 19.1429 14.6368 18.8917 14.1161 18.3895C13.5953 17.8873 13.335 17.2812 13.335 16.5714C13.335 15.8616 13.5953 15.2556 14.1161 14.7533C14.6368 14.2511 15.2651 14 16.0011 14C16.737 14 17.3653 14.2511 17.8861 14.7533C18.4068 15.2556 18.6671 15.8616 18.6671 16.5714ZM25.9988 20.4286C25.9988 21.4933 25.6083 22.4023 24.8272 23.1557C24.0462 23.909 23.1037 24.2857 21.9997 24.2857C20.8958 24.2857 19.9533 23.909 19.1722 23.1557C18.3912 22.4023 18.0006 21.4933 18.0006 20.4286C18.0006 19.3638 18.3912 18.4548 19.1722 17.7015C19.9533 16.9481 20.8958 16.5714 21.9997 16.5714C23.1037 16.5714 24.0462 16.9481 24.8272 17.7015C25.6083 18.4548 25.9988 19.3638 25.9988 20.4286ZM31.9975 22.6886C31.9975 23.2109 31.8031 23.6077 31.4143 23.8789C31.0255 24.1501 30.5464 24.2857 29.9771 24.2857H28.5816C27.8665 23.4621 26.9465 23.0335 25.8218 23C26.3842 22.2165 26.6654 21.3594 26.6654 20.4286C26.6654 20.2344 26.648 20.0134 26.6133 19.7656C27.0715 19.9196 27.5332 19.9967 27.9984 19.9967C28.408 19.9967 28.8211 19.9247 29.2377 19.7807C29.6543 19.6367 29.9927 19.4944 30.2531 19.3538C30.5135 19.2132 30.6645 19.1429 30.7061 19.1429C31.5671 19.1429 31.9975 20.3248 31.9975 22.6886ZM30.6645 16.5714C30.6645 17.2812 30.4041 17.8873 29.8834 18.3895C29.3627 18.8917 28.7343 19.1429 27.9984 19.1429C27.2625 19.1429 26.6341 18.8917 26.1134 18.3895C25.5927 17.8873 25.3323 17.2812 25.3323 16.5714C25.3323 15.8616 25.5927 15.2556 26.1134 14.7533C26.6341 14.2511 27.2625 14 27.9984 14C28.7343 14 29.3627 14.2511 29.8834 14.7533C30.4041 15.2556 30.6645 15.8616 30.6645 16.5714Z" fill="url(#paint1_linear_3456_56538)"/>
<defs>
<linearGradient id="paint0_linear_3456_56538" x1="22.5" y1="0" x2="22.5" y2="45" gradientUnits="userSpaceOnUse">
<stop stop-color="#CF93EC"/>
<stop offset="1" stop-color="#765386"/>
</linearGradient>
<linearGradient id="paint1_linear_3456_56538" x1="21.9997" y1="14" x2="21.9997" y2="32" gradientUnits="userSpaceOnUse">
<stop stop-color="#B55751"/>
<stop offset="1" stop-color="#4F2623"/>
</linearGradient>
</defs>
</svg>
