<svg width="45" height="45" viewBox="0 0 45 45" fill="none" xmlns="http://www.w3.org/2000/svg">
<circle cx="22.5" cy="22.5" r="22.0588" fill="#FBF1FF" stroke="url(#paint0_linear_3456_56386)" stroke-width="0.882353"/>
<path d="M30 15.2857V30.1429H14V15.2857H16.2857V16.4286H15.1429V29H28.8571V16.4286H27.7143V15.2857H30ZM26.5714 18.7143H17.4286V13H26.5714V18.7143ZM25.4286 14.1429H18.5714V17.5714H25.4286V14.1429ZM22 23.2857H23.1429V24.4286H20.8571V22.1429H22V23.2857ZM18 23.8571C18 23.3036 18.1042 22.7857 18.3125 22.3036C18.5208 21.8214 18.8065 21.3958 19.1696 21.0268C19.5327 20.6577 19.9554 20.372 20.4375 20.1696C20.9196 19.9673 21.4405 19.8631 22 19.8571C22.5536 19.8571 23.0714 19.9613 23.5536 20.1696C24.0357 20.378 24.4613 20.6637 24.8304 21.0268C25.1994 21.3899 25.4851 21.8125 25.6875 22.2946C25.8899 22.7768 25.994 23.2976 26 23.8571C26 24.4107 25.8958 24.9286 25.6875 25.4107C25.4792 25.8929 25.1935 26.3185 24.8304 26.6875C24.4673 27.0565 24.0446 27.3423 23.5625 27.5446C23.0804 27.747 22.5595 27.8512 22 27.8571C21.4464 27.8571 20.9286 27.753 20.4464 27.5446C19.9643 27.3363 19.5387 27.0506 19.1696 26.6875C18.8006 26.3244 18.5149 25.9018 18.3125 25.4196C18.1101 24.9375 18.006 24.4167 18 23.8571ZM24.8571 23.8571C24.8571 23.4643 24.7827 23.0952 24.6339 22.75C24.4851 22.4048 24.2798 22.1042 24.0179 21.8482C23.756 21.5923 23.4524 21.3869 23.1071 21.2321C22.7619 21.0774 22.3929 21 22 21C21.6071 21 21.2381 21.0744 20.8929 21.2232C20.5476 21.372 20.244 21.5774 19.9821 21.8393C19.7202 22.1012 19.5149 22.4048 19.3661 22.75C19.2173 23.0952 19.1429 23.4643 19.1429 23.8571C19.1429 24.25 19.2173 24.619 19.3661 24.9643C19.5149 25.3095 19.7173 25.6131 19.9732 25.875C20.2292 26.1369 20.5327 26.3423 20.8839 26.4911C21.2351 26.6399 21.6071 26.7143 22 26.7143C22.3929 26.7143 22.7619 26.6399 23.1071 26.4911C23.4524 26.3423 23.753 26.1399 24.0089 25.8839C24.2649 25.628 24.4702 25.3244 24.625 24.9732C24.7798 24.622 24.8571 24.25 24.8571 23.8571Z" fill="url(#paint1_linear_3456_56386)"/>
<defs>
<linearGradient id="paint0_linear_3456_56386" x1="22.5" y1="0" x2="22.5" y2="45" gradientUnits="userSpaceOnUse">
<stop stop-color="#CF93EC"/>
<stop offset="1" stop-color="#765386"/>
</linearGradient>
<linearGradient id="paint1_linear_3456_56386" x1="22" y1="13" x2="22" y2="30.1429" gradientUnits="userSpaceOnUse">
<stop stop-color="#A5504A"/>
<stop offset="1" stop-color="#3F1F1C"/>
</linearGradient>
</defs>
</svg>
