<svg width="45" height="45" viewBox="0 0 45 45" fill="none" xmlns="http://www.w3.org/2000/svg">
<circle cx="22.5" cy="22.5" r="22.0588" fill="#FBF1FF" stroke="url(#paint0_linear_3456_56392)" stroke-width="0.882353"/>
<path d="M32.1407 21.974C32.1407 27.5895 27.5895 32.1407 21.9747 32.1407C16.3598 32.1407 11.8086 27.5895 11.8086 21.974C11.8086 16.3598 16.3598 11.8086 21.9747 11.8086C27.5895 11.8086 32.1407 16.3598 32.1407 21.974Z" fill="url(#paint1_linear_3456_56392)"/>
<path d="M21.9746 11C15.9232 11 11 15.9228 11 21.9746C11 28.0256 15.9232 32.9484 21.9746 32.9484C28.0259 32.9484 32.9478 28.0263 32.9478 21.9746C32.9478 15.9228 28.0256 11 21.9746 11ZM21.9746 30.8127C17.1012 30.8127 13.1361 26.8482 13.1361 21.9746C13.1361 17.1012 17.1016 13.1367 21.9746 13.1367C26.8476 13.1367 30.812 17.1016 30.812 21.9746C30.812 26.8476 26.8476 30.8127 21.9746 30.8127Z" fill="url(#paint2_linear_3456_56392)"/>
<path d="M21.3281 14.8188C21.3281 14.3252 21.6189 13.9258 21.9764 13.9258C22.3346 13.9258 22.6247 14.3252 22.6247 14.8188V22.0479C22.6247 22.5422 22.3336 22.941 21.9764 22.941C21.6186 22.941 21.3281 22.5422 21.3281 22.0479V14.8188Z" fill="url(#paint3_linear_3456_56392)"/>
<path d="M16.4985 23.0015C16.0049 23.0015 15.6055 22.7103 15.6055 22.3538C15.6055 21.9957 16.0063 21.7048 16.4992 21.7048L21.7321 21.7031C22.2237 21.7031 22.6245 21.9946 22.6238 22.3518C22.6245 22.7096 22.2237 23.0004 21.7321 23.0004L16.4985 23.0015Z" fill="url(#paint4_linear_3456_56392)"/>
<defs>
<linearGradient id="paint0_linear_3456_56392" x1="22.5" y1="0" x2="22.5" y2="45" gradientUnits="userSpaceOnUse">
<stop stop-color="#CF93EC"/>
<stop offset="1" stop-color="#765386"/>
</linearGradient>
<linearGradient id="paint1_linear_3456_56392" x1="21.9747" y1="11.8086" x2="22" y2="33" gradientUnits="userSpaceOnUse">
<stop stop-color="#E9A29D"/>
<stop offset="1" stop-color="#835B58"/>
</linearGradient>
<linearGradient id="paint2_linear_3456_56392" x1="21.9739" y1="11" x2="21.9739" y2="32.9484" gradientUnits="userSpaceOnUse">
<stop stop-color="#A14E48"/>
<stop offset="1" stop-color="#3B1D1A"/>
</linearGradient>
<linearGradient id="paint3_linear_3456_56392" x1="21.9764" y1="13.9258" x2="21.9764" y2="22.941" gradientUnits="userSpaceOnUse">
<stop stop-color="#A14E48"/>
<stop offset="1" stop-color="#3B1D1A"/>
</linearGradient>
<linearGradient id="paint4_linear_3456_56392" x1="19.1146" y1="21.7031" x2="19.1146" y2="23.0015" gradientUnits="userSpaceOnUse">
<stop stop-color="#A14E48"/>
<stop offset="1" stop-color="#3B1D1A"/>
</linearGradient>
</defs>
</svg>
