<svg width="207" height="64" viewBox="0 0 207 64" fill="none" xmlns="http://www.w3.org/2000/svg">
<g filter="url(#filter0_d_2_2289)">
<path d="M31 18H181.5C192.822 18 202 27.1782 202 38.5C202 49.8218 192.822 59 181.5 59H31V18Z" fill="white" shape-rendering="crispEdges"/>
<path d="M31.25 18.25H181.5C192.684 18.25 201.75 27.3162 201.75 38.5C201.75 49.6838 192.684 58.75 181.5 58.75H31.25V18.25Z" stroke="#D65A5A" stroke-width="0.5" shape-rendering="crispEdges"/>
<path d="M66.094 46L60.66 30.49H62.552L66.93 43.36L71.418 30.49H72.87L77.314 43.47L81.78 30.49H83.584L78.15 46H76.544L72.122 33.24L67.656 46H66.094ZM85.6649 32.646V30.644H87.8649V32.646H85.6649ZM85.8849 46V35.308H87.6669V46H85.8849ZM95.2882 46.198C94.0268 46.198 93.0808 45.868 92.4502 45.208C91.8195 44.5333 91.5042 43.5653 91.5042 42.304V36.694H89.4142V35.308H91.5042V32.03H93.2862V35.308H96.6742V36.694H93.2862V42.128C93.2862 42.964 93.4622 43.602 93.8142 44.042C94.1662 44.4673 94.7382 44.68 95.5302 44.68C95.7648 44.68 95.9995 44.6507 96.2342 44.592C96.4688 44.5333 96.6815 44.4747 96.8722 44.416L97.1802 45.78C96.9895 45.8827 96.7108 45.978 96.3442 46.066C95.9775 46.154 95.6255 46.198 95.2882 46.198ZM98.6896 46V30.49H100.472V37.068C100.824 36.4227 101.315 35.9387 101.946 35.616C102.591 35.2787 103.31 35.11 104.102 35.11C106.639 35.11 107.908 36.518 107.908 39.334V46H106.126V39.444C106.126 38.4467 105.928 37.7207 105.532 37.266C105.15 36.7967 104.534 36.562 103.684 36.562C102.701 36.562 101.916 36.87 101.33 37.486C100.758 38.0873 100.472 38.894 100.472 39.906V46H98.6896ZM117.086 46V30.49H122.322C124.83 30.49 126.766 31.1573 128.13 32.492C129.494 33.812 130.176 35.726 130.176 38.234C130.176 40.742 129.494 42.6633 128.13 43.998C126.766 45.3327 124.83 46 122.322 46H117.086ZM118.89 44.46H122.19C126.238 44.46 128.262 42.3847 128.262 38.234C128.262 34.098 126.238 32.03 122.19 32.03H118.89V44.46ZM137.99 46.198C136.303 46.198 134.969 45.7067 133.986 44.724C133.003 43.7267 132.512 42.3773 132.512 40.676C132.512 39.576 132.732 38.608 133.172 37.772C133.612 36.9213 134.213 36.2687 134.976 35.814C135.753 35.3447 136.648 35.11 137.66 35.11C139.112 35.11 140.249 35.5793 141.07 36.518C141.891 37.442 142.302 38.718 142.302 40.346V41.028H134.25C134.309 42.2453 134.661 43.1767 135.306 43.822C135.951 44.4527 136.846 44.768 137.99 44.768C138.635 44.768 139.251 44.6727 139.838 44.482C140.425 44.2767 140.982 43.9467 141.51 43.492L142.126 44.746C141.642 45.2007 141.026 45.56 140.278 45.824C139.53 46.0733 138.767 46.198 137.99 46.198ZM137.704 36.43C136.692 36.43 135.893 36.7453 135.306 37.376C134.719 38.0067 134.375 38.8353 134.272 39.862H140.762C140.718 38.7767 140.432 37.9333 139.904 37.332C139.391 36.7307 138.657 36.43 137.704 36.43ZM148.159 46.198C147.074 46.198 146.252 45.8827 145.695 45.252C145.152 44.6067 144.881 43.6753 144.881 42.458V30.49H146.663V42.326C146.663 43.8953 147.286 44.68 148.533 44.68C148.9 44.68 149.23 44.636 149.523 44.548L149.479 46.044C149.024 46.1467 148.584 46.198 148.159 46.198ZM154.757 46.198C154.023 46.198 153.363 46.0587 152.777 45.78C152.205 45.4867 151.75 45.0907 151.413 44.592C151.075 44.0933 150.907 43.536 150.907 42.92C150.907 42.1427 151.105 41.5267 151.501 41.072C151.911 40.6173 152.579 40.2947 153.503 40.104C154.441 39.8987 155.717 39.796 157.331 39.796H158.035V39.114C158.035 38.2047 157.844 37.552 157.463 37.156C157.096 36.7453 156.502 36.54 155.681 36.54C155.035 36.54 154.412 36.6353 153.811 36.826C153.209 37.002 152.593 37.2953 151.963 37.706L151.347 36.408C151.904 36.012 152.579 35.6967 153.371 35.462C154.177 35.2273 154.947 35.11 155.681 35.11C157.059 35.11 158.079 35.4473 158.739 36.122C159.413 36.7967 159.751 37.8453 159.751 39.268V46H158.079V44.152C157.8 44.7827 157.367 45.2813 156.781 45.648C156.209 46.0147 155.534 46.198 154.757 46.198ZM155.043 44.856C155.923 44.856 156.641 44.5553 157.199 43.954C157.756 43.338 158.035 42.5607 158.035 41.622V40.962H157.353C156.165 40.962 155.226 41.0207 154.537 41.138C153.862 41.2407 153.385 41.4313 153.107 41.71C152.843 41.974 152.711 42.3407 152.711 42.81C152.711 43.4113 152.916 43.9027 153.327 44.284C153.752 44.6653 154.324 44.856 155.043 44.856ZM164.181 49.96L166.007 45.824L161.497 35.308H163.433L166.975 43.976L170.539 35.308H172.409L166.051 49.96H164.181Z" fill="black"/>
</g>
<circle cx="28.2185" cy="31.3513" r="25.0818" fill="white"/>
<path d="M34.9033 6.83529C37.3567 2.74074 41.8371 0 46.9576 0C54.713 0 61 6.28698 61 14.0424C61 19.5352 57.8462 24.2915 53.2506 26.5991C53.6904 28.5313 53.9226 30.5425 53.9226 32.6078C53.9226 47.4982 41.8517 59.5692 26.9613 59.5692C12.071 59.5692 0 47.4982 0 32.6078C0 17.7175 12.071 5.64651 26.9613 5.64651C29.7256 5.64651 32.3926 6.0625 34.9033 6.83529ZM33.5236 9.94138C31.4403 9.33931 29.2385 9.01667 26.9613 9.01667C13.9323 9.01667 3.37017 19.5788 3.37017 32.6078C3.37017 45.6369 13.9323 56.199 26.9613 56.199C39.9904 56.199 50.5525 45.6369 50.5525 32.6078C50.5525 30.9402 50.3794 29.3129 50.0503 27.743C49.0553 27.9667 48.0202 28.0847 46.9576 28.0847C39.2023 28.0847 32.9153 21.7977 32.9153 14.0424C32.9153 12.6157 33.128 11.2387 33.5236 9.94138ZM25.6133 37.6335C24.3724 37.6335 23.3665 36.6276 23.3665 35.3867V23.5912C23.3665 22.6605 24.1209 21.9061 25.0516 21.9061C25.9822 21.9061 26.7366 22.6605 26.7366 23.5912V34.2634H35.1621C36.0927 34.2634 36.8471 35.0178 36.8471 35.9484C36.8471 36.8791 36.0927 37.6335 35.1621 37.6335H25.6133ZM45.8606 34.559C44.992 34.559 44.2879 33.8443 44.2879 32.9626C44.2879 32.0809 44.992 31.3662 45.8606 31.3662C46.7293 31.3662 47.4334 32.0809 47.4334 32.9626C47.4334 33.8443 46.7293 34.559 45.8606 34.559ZM8.11479 34.559C7.24619 34.559 6.54205 33.8443 6.54205 32.9626C6.54205 32.0809 7.24619 31.3662 8.11479 31.3662C8.9834 31.3662 9.68754 32.0809 9.68754 32.9626C9.68754 33.8443 8.9834 34.559 8.11479 34.559ZM39.1963 47.6562C38.5822 47.042 38.5896 46.0387 39.2131 45.4153C39.8365 44.7919 40.8398 44.7844 41.454 45.3986C42.0682 46.0128 42.0607 47.0161 41.4373 47.6395C40.8138 48.2629 39.8105 48.2704 39.1963 47.6562ZM12.506 20.5645C11.8918 19.9503 11.8993 18.947 12.5227 18.3236C13.1462 17.7001 14.1494 17.6927 14.7636 18.3069C15.3778 18.9211 15.3703 19.9243 14.7469 20.5478C14.1235 21.1712 13.1202 21.1787 12.506 20.5645ZM14.7636 47.6183C14.1494 48.2325 13.1462 48.225 12.5227 47.6016C11.8993 46.9782 11.8918 45.9749 12.506 45.3607C13.1202 44.7465 14.1235 44.754 14.7469 45.3774C15.3703 46.0008 15.3778 47.0041 14.7636 47.6183ZM26.9877 53.7157C26.1191 53.7157 25.415 53.001 25.415 52.1193C25.415 51.2377 26.1191 50.5229 26.9877 50.5229C27.8563 50.5229 28.5605 51.2377 28.5605 52.1193C28.5605 53.001 27.8563 53.7157 26.9877 53.7157ZM26.9877 15.4022C26.1191 15.4022 25.415 14.6875 25.415 13.8059C25.415 12.9242 26.1191 12.2095 26.9877 12.2095C27.8563 12.2095 28.5605 12.9242 28.5605 13.8059C28.5605 14.6875 27.8563 15.4022 26.9877 15.4022ZM46.9576 23.5912C48.5087 23.5912 49.7661 22.3338 49.7661 20.7827C49.7661 19.2316 48.5087 17.9742 46.9576 17.9742C45.4066 17.9742 44.1492 19.2316 44.1492 20.7827C44.1492 22.3338 45.4066 23.5912 46.9576 23.5912ZM45.8343 3.93186C45.2138 3.93186 44.7109 4.43482 44.7109 5.05525V14.0424C44.7109 14.6628 45.2138 15.1657 45.8343 15.1657H48.081C48.7015 15.1657 49.2044 14.6628 49.2044 14.0424V5.05525C49.2044 4.43482 48.7015 3.93186 48.081 3.93186H45.8343Z" fill="#D65A5A"/>
<defs>
<filter id="filter0_d_2_2289" x="28" y="15" width="179" height="49" filterUnits="userSpaceOnUse" color-interpolation-filters="sRGB">
<feFlood flood-opacity="0" result="BackgroundImageFix"/>
<feColorMatrix in="SourceAlpha" type="matrix" values="0 0 0 0 0 0 0 0 0 0 0 0 0 0 0 0 0 0 127 0" result="hardAlpha"/>
<feOffset dx="1" dy="1"/>
<feGaussianBlur stdDeviation="2"/>
<feComposite in2="hardAlpha" operator="out"/>
<feColorMatrix type="matrix" values="0 0 0 0 0 0 0 0 0 0 0 0 0 0 0 0 0 0 0.25 0"/>
<feBlend mode="normal" in2="BackgroundImageFix" result="effect1_dropShadow_2_2289"/>
<feBlend mode="normal" in="SourceGraphic" in2="effect1_dropShadow_2_2289" result="shape"/>
</filter>
</defs>
</svg>
