<svg width="215" height="62" viewBox="0 0 215 62" fill="none" xmlns="http://www.w3.org/2000/svg">
<g filter="url(#filter0_d_2_2579)">
<g filter="url(#filter1_d_2_2579)">
<path d="M33 11H189.5C200.822 11 210 20.1782 210 31.5C210 42.8218 200.822 52 189.5 52H33V11Z" fill="white" shape-rendering="crispEdges"/>
<path d="M33.25 11.25H189.5C200.684 11.25 209.75 20.3162 209.75 31.5C209.75 42.6838 200.684 51.75 189.5 51.75H33.25V11.25Z" stroke="#B6B6B6" stroke-width="0.5" shape-rendering="crispEdges"/>
<path d="M69.654 39V31.652L63.714 23.49H65.826L70.6 30.068L75.352 23.49H77.398L71.458 31.696V39H69.654ZM81.8552 39.198C80.1686 39.198 78.8339 38.7067 77.8512 37.724C76.8686 36.7267 76.3772 35.3773 76.3772 33.676C76.3772 32.576 76.5972 31.608 77.0372 30.772C77.4772 29.9213 78.0786 29.2687 78.8412 28.814C79.6186 28.3447 80.5132 28.11 81.5252 28.11C82.9772 28.11 84.1139 28.5793 84.9352 29.518C85.7566 30.442 86.1672 31.718 86.1672 33.346V34.028H78.1152C78.1739 35.2453 78.5259 36.1767 79.1712 36.822C79.8166 37.4527 80.7112 37.768 81.8552 37.768C82.5006 37.768 83.1166 37.6727 83.7032 37.482C84.2899 37.2767 84.8472 36.9467 85.3752 36.492L85.9912 37.746C85.5072 38.2007 84.8912 38.56 84.1432 38.824C83.3952 39.0733 82.6326 39.198 81.8552 39.198ZM81.5692 29.43C80.5572 29.43 79.7579 29.7453 79.1712 30.376C78.5846 31.0067 78.2399 31.8353 78.1372 32.862H84.6272C84.5832 31.7767 84.2972 30.9333 83.7692 30.332C83.2559 29.7307 82.5226 29.43 81.5692 29.43ZM93.0362 39.198C91.7749 39.198 90.8289 38.868 90.1982 38.208C89.5676 37.5333 89.2522 36.5653 89.2522 35.304V29.694H87.1622V28.308H89.2522V25.03H91.0342V28.308H94.4222V29.694H91.0342V35.128C91.0342 35.964 91.2102 36.602 91.5622 37.042C91.9142 37.4673 92.4862 37.68 93.2782 37.68C93.5129 37.68 93.7476 37.6507 93.9822 37.592C94.2169 37.5333 94.4296 37.4747 94.6202 37.416L94.9282 38.78C94.7376 38.8827 94.4589 38.978 94.0922 39.066C93.7256 39.154 93.3736 39.198 93.0362 39.198ZM106.136 39V25.052H100.504V23.49H113.594V25.052H107.962V39H106.136ZM118.091 39.198C117.049 39.198 116.147 38.9707 115.385 38.516C114.622 38.0613 114.028 37.4233 113.603 36.602C113.192 35.766 112.987 34.7833 112.987 33.654C112.987 32.5247 113.192 31.5493 113.603 30.728C114.028 29.892 114.622 29.2467 115.385 28.792C116.147 28.3373 117.049 28.11 118.091 28.11C119.117 28.11 120.012 28.3373 120.775 28.792C121.552 29.2467 122.146 29.892 122.557 30.728C122.982 31.5493 123.195 32.5247 123.195 33.654C123.195 34.7833 122.982 35.766 122.557 36.602C122.146 37.4233 121.552 38.0613 120.775 38.516C120.012 38.9707 119.117 39.198 118.091 39.198ZM118.091 37.768C119.088 37.768 119.887 37.416 120.489 36.712C121.09 35.9933 121.391 34.974 121.391 33.654C121.391 32.3193 121.09 31.3 120.489 30.596C119.887 29.892 119.088 29.54 118.091 29.54C117.079 29.54 116.272 29.892 115.671 30.596C115.084 31.3 114.791 32.3193 114.791 33.654C114.791 34.974 115.084 35.9933 115.671 36.712C116.272 37.416 117.079 37.768 118.091 37.768ZM136.78 39.198C135.562 39.198 134.462 39.044 133.48 38.736C132.497 38.4133 131.646 37.9513 130.928 37.35L131.566 35.898C132.314 36.47 133.098 36.8953 133.92 37.174C134.741 37.4527 135.694 37.592 136.78 37.592C138.1 37.592 139.075 37.35 139.706 36.866C140.351 36.3673 140.674 35.7147 140.674 34.908C140.674 34.2627 140.439 33.7493 139.97 33.368C139.515 32.9867 138.745 32.686 137.66 32.466L135.372 32.004C133.993 31.7107 132.959 31.234 132.27 30.574C131.595 29.8993 131.258 29.0047 131.258 27.89C131.258 26.966 131.492 26.1593 131.962 25.47C132.446 24.7807 133.113 24.2453 133.964 23.864C134.814 23.4827 135.797 23.292 136.912 23.292C137.953 23.292 138.921 23.4607 139.816 23.798C140.71 24.1207 141.466 24.59 142.082 25.206L141.444 26.614C140.784 26.0127 140.087 25.58 139.354 25.316C138.62 25.0373 137.799 24.898 136.89 24.898C135.731 24.898 134.807 25.1693 134.118 25.712C133.428 26.24 133.084 26.944 133.084 27.824C133.084 28.528 133.296 29.0853 133.722 29.496C134.162 29.9067 134.873 30.2073 135.856 30.398L138.144 30.882C139.625 31.19 140.718 31.6593 141.422 32.29C142.14 32.906 142.5 33.7493 142.5 34.82C142.5 35.6853 142.265 36.448 141.796 37.108C141.341 37.768 140.681 38.2813 139.816 38.648C138.965 39.0147 137.953 39.198 136.78 39.198ZM149.304 39.198C148.042 39.198 147.096 38.868 146.466 38.208C145.835 37.5333 145.52 36.5653 145.52 35.304V29.694H143.43V28.308H145.52V25.03H147.302V28.308H150.69V29.694H147.302V35.128C147.302 35.964 147.478 36.602 147.83 37.042C148.182 37.4673 148.754 37.68 149.546 37.68C149.78 37.68 150.015 37.6507 150.25 37.592C150.484 37.5333 150.697 37.4747 150.888 37.416L151.196 38.78C151.005 38.8827 150.726 38.978 150.36 39.066C149.993 39.154 149.641 39.198 149.304 39.198ZM156.071 39.198C155.338 39.198 154.678 39.0587 154.091 38.78C153.519 38.4867 153.065 38.0907 152.727 37.592C152.39 37.0933 152.221 36.536 152.221 35.92C152.221 35.1427 152.419 34.5267 152.815 34.072C153.226 33.6173 153.893 33.2947 154.817 33.104C155.756 32.8987 157.032 32.796 158.645 32.796H159.349V32.114C159.349 31.2047 159.159 30.552 158.777 30.156C158.411 29.7453 157.817 29.54 156.995 29.54C156.35 29.54 155.727 29.6353 155.125 29.826C154.524 30.002 153.908 30.2953 153.277 30.706L152.661 29.408C153.219 29.012 153.893 28.6967 154.685 28.462C155.492 28.2273 156.262 28.11 156.995 28.11C158.374 28.11 159.393 28.4473 160.053 29.122C160.728 29.7967 161.065 30.8453 161.065 32.268V39H159.393V37.152C159.115 37.7827 158.682 38.2813 158.095 38.648C157.523 39.0147 156.849 39.198 156.071 39.198ZM156.357 37.856C157.237 37.856 157.956 37.5553 158.513 36.954C159.071 36.338 159.349 35.5607 159.349 34.622V33.962H158.667C157.479 33.962 156.541 34.0207 155.851 34.138C155.177 34.2407 154.7 34.4313 154.421 34.71C154.157 34.974 154.025 35.3407 154.025 35.81C154.025 36.4113 154.231 36.9027 154.641 37.284C155.067 37.6653 155.639 37.856 156.357 37.856ZM164.371 39V28.308H166.109V30.222C166.681 28.9313 167.855 28.22 169.629 28.088L170.267 28.022L170.399 29.562L169.277 29.694C168.265 29.782 167.495 30.1047 166.967 30.662C166.439 31.2047 166.175 31.9527 166.175 32.906V39H164.371ZM177.126 39.198C175.865 39.198 174.919 38.868 174.288 38.208C173.657 37.5333 173.342 36.5653 173.342 35.304V29.694H171.252V28.308H173.342V25.03H175.124V28.308H178.512V29.694H175.124V35.128C175.124 35.964 175.3 36.602 175.652 37.042C176.004 37.4673 176.576 37.68 177.368 37.68C177.603 37.68 177.837 37.6507 178.072 37.592C178.307 37.5333 178.519 37.4747 178.71 37.416L179.018 38.78C178.827 38.8827 178.549 38.978 178.182 39.066C177.815 39.154 177.463 39.198 177.126 39.198Z" fill="black"/>
</g>
<circle cx="31" cy="27" r="24" fill="white"/>
<path fill-rule="evenodd" clip-rule="evenodd" d="M31 54C45.9117 54 58 41.9117 58 27C58 12.0883 45.9117 0 31 0C16.0883 0 4 12.0883 4 27C4 41.9117 16.0883 54 31 54ZM31 51C44.2548 51 55 40.2548 55 27C55 13.7452 44.2548 3 31 3C17.7452 3 7 13.7452 7 27C7 40.2548 17.7452 51 31 51Z" fill="#B6B6B6"/>
<circle cx="31.0253" cy="7.50505" r="1.5" transform="rotate(-1.43077 31.0253 7.50505)" fill="#B6B6B6"/>
<circle cx="18.1542" cy="12.8293" r="1.5" transform="rotate(-1.43077 18.1542 12.8293)" fill="#B6B6B6"/>
<circle cx="12.5057" cy="26.9738" r="1.5" transform="rotate(-1.43077 12.5057 26.9738)" fill="#B6B6B6"/>
<circle cx="18.8534" cy="40.8215" r="1.5" transform="rotate(-1.43077 18.8534 40.8215)" fill="#B6B6B6"/>
<circle cx="31.9745" cy="45.4933" r="1.5" transform="rotate(-1.43077 31.9745 45.4933)" fill="#B6B6B6"/>
<circle cx="44.8221" cy="39.173" r="1.5" transform="rotate(-1.43077 44.8221 39.173)" fill="#B6B6B6"/>
<circle cx="50.494" cy="26.0246" r="1.5" transform="rotate(-1.43077 50.494 26.0246)" fill="#B6B6B6"/>
<path d="M28 18C28 16.8954 28.8954 16 30 16C31.1046 16 32 16.8954 32 18V29H28V18Z" fill="#B6B6B6"/>
<rect x="28" y="27" width="14" height="4" rx="2" fill="#B6B6B6"/>
</g>
<defs>
<filter id="filter0_d_2_2579" x="0" y="0" width="214" height="62" filterUnits="userSpaceOnUse" color-interpolation-filters="sRGB">
<feFlood flood-opacity="0" result="BackgroundImageFix"/>
<feColorMatrix in="SourceAlpha" type="matrix" values="0 0 0 0 0 0 0 0 0 0 0 0 0 0 0 0 0 0 127 0" result="hardAlpha"/>
<feOffset dy="4"/>
<feGaussianBlur stdDeviation="2"/>
<feComposite in2="hardAlpha" operator="out"/>
<feColorMatrix type="matrix" values="0 0 0 0 0 0 0 0 0 0 0 0 0 0 0 0 0 0 0.25 0"/>
<feBlend mode="normal" in2="BackgroundImageFix" result="effect1_dropShadow_2_2579"/>
<feBlend mode="normal" in="SourceGraphic" in2="effect1_dropShadow_2_2579" result="shape"/>
</filter>
<filter id="filter1_d_2_2579" x="30" y="8" width="185" height="49" filterUnits="userSpaceOnUse" color-interpolation-filters="sRGB">
<feFlood flood-opacity="0" result="BackgroundImageFix"/>
<feColorMatrix in="SourceAlpha" type="matrix" values="0 0 0 0 0 0 0 0 0 0 0 0 0 0 0 0 0 0 127 0" result="hardAlpha"/>
<feOffset dx="1" dy="1"/>
<feGaussianBlur stdDeviation="2"/>
<feComposite in2="hardAlpha" operator="out"/>
<feColorMatrix type="matrix" values="0 0 0 0 0 0 0 0 0 0 0 0 0 0 0 0 0 0 0.25 0"/>
<feBlend mode="normal" in2="BackgroundImageFix" result="effect1_dropShadow_2_2579"/>
<feBlend mode="normal" in="SourceGraphic" in2="effect1_dropShadow_2_2579" result="shape"/>
</filter>
</defs>
</svg>
